PathFileType	4	(X/Y/Z)	/Users/itak/Documents/Research/Walk-IL/dataset/trc/00099_00007.trc
DataRate	CameraRate	NumFrames	NumMarkers	Units	OrigDataRate	OrigDataStartFrame	OrigNumFrames
100.000000	100.000000	4	53	mm	100.000000	392	523
Frame#	Time	RPSI			LPSI			L3			STRN			T10			C7			CLAV			RBAK			LBAK			LSHO			LUPA			LAEL			LAOL			LWTS			LWPS			LFRA			LIFD			LHPS			LHTS			RSHO			RUPA			RAEL			RAOL			RWTS			RWPS			RFRA			RIFD			RHTS			RHPS			RBHD			LFHD			RFHD			LBHD			LHIP			RHIP			RASI			LASI			LKNE			LTHI			LANK			LTIP			LTOE			LMT1			LMT5			LHEE			RKNE			RTHI			RANK			RTIP			RTOE			RMT1			RMT5			RHEE			
		X1	Y1	Z1	X2	Y2	Z2	X3	Y3	Z3	X4	Y4	Z4	X5	Y5	Z5	X6	Y6	Z6	X7	Y7	Z7	X8	Y8	Z8	X9	Y9	Z9	X10	Y10	Z10	X11	Y11	Z11	X12	Y12	Z12	X13	Y13	Z13	X14	Y14	Z14	X15	Y15	Z15	X16	Y16	Z16	X17	Y17	Z17	X18	Y18	Z18	X19	Y19	Z19	X20	Y20	Z20	X21	Y21	Z21	X22	Y22	Z22	X23	Y23	Z23	X24	Y24	Z24	X25	Y25	Z25	X26	Y26	Z26	X27	Y27	Z27	X28	Y28	Z28	X29	Y29	Z29	X30	Y30	Z30	X31	Y31	Z31	X32	Y32	Z32	X33	Y33	Z33	X34	Y34	Z34	X35	Y35	Z35	X36	Y36	Z36	X37	Y37	Z37	X38	Y38	Z38	X39	Y39	Z39	X40	Y40	Z40	X41	Y41	Z41	X42	Y42	Z42	X43	Y43	Z43	X44	Y44	Z44	X45	Y45	Z45	X46	Y46	Z46	X47	Y47	Z47	X48	Y48	Z48	X49	Y49	Z49	X50	Y50	Z50	X51	Y51	Z51	X52	Y52	Z52	X53	Y53	Z53	

393	3.92	295.6409301757812	1111.203369140625	-241.183837890625	278.4605712890625	1109.478881835938	-375.8287658691406	277.7513732910156	1146.897583007812	-310.5417785644531	488.3800659179688	1361.200317382812	-336.910888671875	236.0599365234375	1298.101684570312	-310.4288024902344	259.5360107421875	1591.1943359375	-333.721435546875	445.9960632324219	1493.75244140625	-336.2537536621094	220.7581176757812	1405.503662109375	-237.9682464599609	244.6693267822266	1571.036254882812	-434.3193664550781	328.2262878417969	1559.491821289062	-507.4271850585938	313.2015991210938	1425.964721679688	-573.63818359375	344.0088500976562	1209.040771484375	-596.1572875976562	282.7493896484375	1191.512939453125	-534.645751953125	460.2277221679688	957.2105712890625	-564.1847534179688	377.30078125	927.6388549804688	-585.2421264648438	366.2620849609375	1094.183227539062	-602.3104248046875	477.5503540039062	762.89306640625	-541.829345703125	408.1985778808594	853.4976196289062	-588.610595703125	477.3944091796875	867.7310791015625	-576.9990234375	328.8923950195312	1577.916870117188	-155.7391357421875	322.6254577636719	1506.162719726562	-88.60655212402344	337.1043395996094	1213.720581054688	-50.50650787353516	321.0163269042969	1205.717407226562	-144.8677062988281	504.1569213867188	987.2561645507812	-70.77537536621094	436.846923828125	964.358642578125	-29.92831993103027	370.3060607910156	1143.997314453125	-34.55548095703125	547.3701171875	795.49609375	-82.60134124755859	545.4609985351562	882.634033203125	-64.52228546142578	484.6828308105469	869.8707885742188	-25.77298736572266	301.6493530273438	1763.383422851562	-256.3133239746094	458.3686828613281	1834.700317382812	-393.88916015625	462.4556884765625	1837.722778320312	-264.3550720214844	287.4684143066406	1764.311279296875	-390.9319458007812	363.3408813476562	1027.727783203125	-496.3925476074219	442.0057067871094	1029.220092773438	-138.3143310546875	509.4584350585938	1105.919799804688	-202.4662475585938	472.6138305664062	1102.015380859375	-466.5205688476562	494.14453125	525.5985107421875	-494.6202697753906	443.322265625	675.27978515625	-507.6192016601562	79.990478515625	181.7055816650391	-475.9640808105469	261.8285827636719	375.3047180175781	-507.0474853515625	250.1859130859375	36.78579711914062	-448.7277221679688	200.7170867919922	83.99213409423828	-404.8964538574219	152.6700286865234	86.62792205810547	-509.3787536621094	46.91560745239258	235.15576171875	-407.9302062988281	523.2188720703125	543.539306640625	-187.9352874755859	496.3351135253906	821.3678588867188	-148.3720855712891	492.650390625	25.05775833129883	-227.1499786376953	520.0218505859375	406.4809265136719	-179.6348266601562	723.7973022460938	42.48067855834961	-288.5110168457031	661.63818359375	36.60735321044922	-326.5478820800781	627.2457275390625	36.76242446899414	-208.0058898925781	434.5106506347656	31.09762954711914	-274.9676513671875	
394	3.93	301.170166015625	1111.703125	-240.4245147705078	284.27197265625	1110.05322265625	-375.1565551757812	283.4053344726562	1147.455078125	-309.7181091308594	494.1497497558594	1361.899780273438	-336.0809936523438	241.6772155761719	1298.610229492188	-309.2107238769531	265.3399963378906	1591.851440429688	-332.188232421875	451.9010620117188	1494.638549804688	-335.702880859375	226.9505615234375	1406.322875976562	-236.1712646484375	249.9855499267578	1571.690063476562	-432.6567687988281	333.0862731933594	1560.1513671875	-506.3303833007812	316.9443969726562	1426.4189453125	-572.1708984375	345.5677185058594	1209.200561523438	-594.1229248046875	285.1513671875	1192.51708984375	-531.6399536132812	458.2707214355469	955.5361938476562	-563.1245727539062	374.5695190429688	927.4395141601562	-582.8220825195312	366.1497802734375	1094.044677734375	-600.2245483398438	472.6541442871094	761.046875	-541.2293701171875	404.1405029296875	852.817138671875	-586.7962036132812	473.745849609375	865.8795166015625	-576.32470703125	335.5349426269531	1578.755859375	-154.5721130371094	329.9210510253906	1507.130737304688	-87.23406219482422	347.292724609375	1214.893310546875	-47.93491744995117	330.3525390625	1206.246215820312	-142.1046752929688	517.3890991210938	990.7932739257812	-68.75553894042969	450.7084655761719	966.9778442382812	-27.33847808837891	381.5408935546875	1145.61767578125	-32.01239395141602	563.5476684570312	799.75439453125	-80.14107513427734	560.3663330078125	886.8901977539062	-62.39139175415039	500.0839538574219	873.2837524414062	-23.15283203125	307.6565856933594	1764.085815429688	-255.1765441894531	464.2426147460938	1835.269165039062	-393.0156555175781	468.5233764648438	1838.292114257812	-263.4719543457031	293.3181762695312	1765.019409179688	-389.8168334960938	369.8884582519531	1028.48095703125	-495.6795043945312	447.05029296875	1029.672973632812	-137.1293792724609	514.8499145507812	1106.563720703125	-200.9607543945312	478.7588500976562	1102.845092773438	-465.2593688964844	506.4683837890625	527.4490966796875	-492.9269409179688	453.7881164550781	676.5772094726562	-506.2527160644531	93.71385192871094	182.4154815673828	-476.408935546875	274.5387878417969	376.4726257324219	-506.1468811035156	265.6315002441406	38.52518844604492	-451.8742065429688	215.7632293701172	84.85301208496094	-407.0003662109375	167.7170562744141	89.18306732177734	-511.58349609375	59.75907516479492	234.2522735595703	-407.6255798339844	524.511474609375	543.1953735351562	-186.7189178466797	500.0855712890625	821.3775024414062	-147.255859375	492.642333984375	25.15654563903809	-227.2490081787109	520.6513061523438	406.2365112304688	-178.7470855712891	723.8660278320312	42.35482025146484	-288.5347290039062	661.6720581054688	36.53318786621094	-326.4713745117188	627.2255249023438	36.69600296020508	-207.8931579589844	434.5319213867188	31.12309265136719	-275.0355224609375	
395	3.94	306.517333984375	1112.170043945312	-239.7308807373047	289.9814147949219	1110.636840820312	-374.5552978515625	288.9303894042969	1148.010620117188	-308.9685363769531	499.8052673339844	1362.581420898438	-335.2318115234375	247.2029418945312	1299.118530273438	-308.0715942382812	271.036865234375	1592.491943359375	-330.7315979003906	457.6802673339844	1495.489868164062	-335.14990234375	232.973388671875	1407.107543945312	-234.4967803955078	255.2597198486328	1572.352783203125	-431.0827331542969	337.9317932128906	1560.832763671875	-505.27783203125	320.6335144042969	1426.940551757812	-570.8150634765625	346.9343872070312	1209.432739257812	-592.2286987304688	287.3672485351562	1193.589111328125	-528.8203125	456.3334655761719	954.111328125	-562.1018676757812	371.9381408691406	927.373046875	-580.44091796875	365.9332885742188	1094.018310546875	-598.2636108398438	468.0105590820312	759.5164184570312	-540.3211059570312	400.2821044921875	852.3160400390625	-584.8694458007812	470.21484375	864.2837524414062	-575.5048828125	341.9728393554688	1579.55322265625	-153.4637756347656	336.9657592773438	1508.051635742188	-85.94577789306641	357.3013916015625	1216.055541992188	-45.48326110839844	339.5322265625	1206.762329101562	-139.4684143066406	530.4039916992188	994.3580932617188	-66.86456298828125	464.3724975585938	969.6474609375	-24.8744068145752	392.60009765625	1147.244873046875	-29.58771514892578	579.4865112304688	804.076904296875	-77.80551147460938	575.0455932617188	891.2027587890625	-60.38507461547852	515.2758178710938	876.7691040039062	-20.65807914733887	313.5619812011719	1764.794555664062	-254.0756378173828	470.0076599121094	1835.797729492188	-392.2179565429688	474.4889526367188	1838.833129882812	-262.6549682617188	299.0509338378906	1765.718383789062	-388.7583312988281	376.2813720703125	1029.246704101562	-495.0190124511719	451.9145812988281	1030.05615234375	-135.9544982910156	520.0822143554688	1107.142211914062	-199.4200897216797	484.8848571777344	1103.7705078125	-464.04345703125	518.3494873046875	529.36669921875	-491.2108154296875	463.9151611328125	677.9147338867188	-504.8782043457031	107.9715347290039	182.0889892578125	-476.9586791992188	287.1228332519531	377.2375793457031	-505.2403869628906	282.1040344238281	40.10384368896484	-454.5730285644531	231.5904693603516	85.35791015625	-408.8766784667969	183.7022094726562	91.01342010498047	-513.6311645507812	72.83283233642578	232.22802734375	-407.530029296875	525.73681640625	542.8645629882812	-185.5750274658203	503.7107849121094	821.3914184570312	-146.2548980712891	492.635498046875	25.2654972076416	-227.3688507080078	521.2590942382812	406.0104675292969	-177.9235992431641	723.9189453125	42.19375228881836	-288.565185546875	661.7149047851562	36.46504974365234	-326.4035339355469	627.2091674804688	36.64143753051758	-207.7884979248047	434.5591125488281	31.14969062805176	-275.1183166503906	
396	3.95	311.7063903808594	1112.611083984375	-239.1013031005859	295.599609375	1111.220581054688	-374.0176086425781	294.3327941894531	1148.561889648438	-308.2880859375	505.359375	1363.241821289062	-334.3610534667969	252.6562957763672	1299.6279296875	-307.0065002441406	276.6319580078125	1593.10986328125	-329.3564453125	463.3302917480469	1496.284790039062	-334.5776977539062	238.8252410888672	1407.85546875	-232.94677734375	260.5009155273438	1573.011596679688	-429.6022033691406	342.7766723632812	1561.507934570312	-504.2676696777344	324.2932434082031	1427.5068359375	-569.5682373046875	348.1539611816406	1209.723510742188	-590.4769287109375	289.4081726074219	1194.706420898438	-526.2118530273438	454.4700927734375	952.9260864257812	-561.1055908203125	369.4508056640625	927.4080810546875	-578.135009765625	365.659912109375	1094.086303710938	-596.4329223632812	463.6650695800781	758.2669677734375	-539.0809936523438	396.6752624511719	851.953857421875	-582.8509521484375	466.8554382324219	862.9039916992188	-574.5177001953125	348.2036743164062	1580.309936523438	-152.4106140136719	343.7543334960938	1508.926513671875	-84.73406219482422	367.1000061035156	1217.2021484375	-43.1628303527832	348.5496215820312	1207.272216796875	-136.9680938720703	543.1766967773438	997.948486328125	-65.10308074951172	477.8057861328125	972.3591918945312	-22.54843902587891	403.4536743164062	1148.872924804688	-27.29067039489746	595.16748046875	808.459228515625	-75.59784698486328	589.474609375	895.567626953125	-58.50235366821289	530.2224731445312	880.320068359375	-18.29959869384766	319.3673400878906	1765.49755859375	-253.0127716064453	475.6613464355469	1836.287475585938	-391.4867858886719	480.3453063964844	1839.347412109375	-261.8969116210938	304.6651306152344	1766.395385742188	-387.749267578125	382.4966430664062	1030.008178710938	-494.4037170410156	456.6443176269531	1030.3818359375	-134.7901611328125	525.172119140625	1107.657958984375	-197.8627014160156	490.9933776855469	1104.789306640625	-462.875732421875	529.7708740234375	531.3238525390625	-489.4869689941406	473.6946716308594	679.2742919921875	-503.5091552734375	122.7005157470703	180.7478332519531	-477.6027221679688	299.573974609375	377.5783996582031	-504.3606262207031	299.4719848632812	41.45516204833984	-456.7816467285156	248.1017456054688	85.53316497802734	-410.49462890625	200.4764709472656	92.08914184570312	-515.4669799804688	86.14583587646484	229.1536712646484	-407.655029296875	526.9262084960938	542.5506591796875	-184.5016479492188	507.2552185058594	821.431640625	-145.3786468505859	492.6316833496094	25.37188720703125	-227.4978942871094	521.8795776367188	405.8049621582031	-177.1636657714844	723.9576416015625	41.99184036254883	-288.6081848144531	661.7638549804688	36.40002822875977	-326.3401794433594	627.1975708007812	36.59632873535156	-207.6872711181641	434.5926513671875	31.17975044250488	-275.2083435058594	
